<mxfile host="app.diagrams.net" modified="2021-10-08T11:20:53.432Z" agent="5.0 (Windows NT 10.0; Win64; x64) AppleWebKit/537.36 (KHTML, like Gecko) Chrome/94.0.4606.71 Safari/537.36" etag="hsgSpu7WtomMMDI3dOFd" version="15.4.3" type="github">
  <diagram id="hV5nrhPVNMLSN2SdXfnI" name="Page-1">
    <mxGraphModel dx="593" dy="279" grid="1" gridSize="10" guides="1" tooltips="1" connect="1" arrows="1" fold="1" page="1" pageScale="1" pageWidth="827" pageHeight="1169" math="0" shadow="0">
      <root>
        <mxCell id="0" />
        <mxCell id="1" parent="0" />
        <mxCell id="RNcqzkn02mb_PASCYRnu-1" value="" style="rounded=0;whiteSpace=wrap;html=1;strokeColor=#000000;" parent="1" vertex="1">
          <mxGeometry x="340" y="10" width="120" height="60" as="geometry" />
        </mxCell>
        <mxCell id="RNcqzkn02mb_PASCYRnu-2" value="пользовательский&lt;br&gt;интерфейс" style="text;html=1;strokeColor=none;fillColor=none;align=center;verticalAlign=middle;whiteSpace=wrap;rounded=0;" parent="1" vertex="1">
          <mxGeometry x="370" y="25" width="60" height="30" as="geometry" />
        </mxCell>
        <mxCell id="RNcqzkn02mb_PASCYRnu-3" value="" style="rounded=0;whiteSpace=wrap;html=1;strokeColor=#000000;" parent="1" vertex="1">
          <mxGeometry x="340" y="100" width="120" height="60" as="geometry" />
        </mxCell>
        <mxCell id="RNcqzkn02mb_PASCYRnu-5" value="widgets" style="text;html=1;strokeColor=none;fillColor=none;align=center;verticalAlign=middle;whiteSpace=wrap;rounded=0;" parent="1" vertex="1">
          <mxGeometry x="370" y="115" width="60" height="30" as="geometry" />
        </mxCell>
        <mxCell id="RNcqzkn02mb_PASCYRnu-6" value="" style="rounded=0;whiteSpace=wrap;html=1;strokeColor=#000000;" parent="1" vertex="1">
          <mxGeometry x="60" y="200" width="120" height="60" as="geometry" />
        </mxCell>
        <mxCell id="RNcqzkn02mb_PASCYRnu-7" value="" style="rounded=0;whiteSpace=wrap;html=1;strokeColor=#000000;" parent="1" vertex="1">
          <mxGeometry x="340" y="200" width="120" height="60" as="geometry" />
        </mxCell>
        <mxCell id="RNcqzkn02mb_PASCYRnu-8" value="" style="rounded=0;whiteSpace=wrap;html=1;strokeColor=#000000;" parent="1" vertex="1">
          <mxGeometry x="610" y="200" width="120" height="60" as="geometry" />
        </mxCell>
        <mxCell id="RNcqzkn02mb_PASCYRnu-9" value="apps for work" style="text;html=1;strokeColor=none;fillColor=none;align=center;verticalAlign=middle;whiteSpace=wrap;rounded=0;" parent="1" vertex="1">
          <mxGeometry x="90" y="215" width="60" height="30" as="geometry" />
        </mxCell>
        <mxCell id="hAVcg_jXKsXOxKNlVRBH-1" value="games" style="text;html=1;strokeColor=none;fillColor=none;align=center;verticalAlign=middle;whiteSpace=wrap;rounded=0;" vertex="1" parent="1">
          <mxGeometry x="370" y="215" width="60" height="30" as="geometry" />
        </mxCell>
        <mxCell id="hAVcg_jXKsXOxKNlVRBH-4" value="embedded" style="text;html=1;strokeColor=none;fillColor=none;align=center;verticalAlign=middle;whiteSpace=wrap;rounded=0;" vertex="1" parent="1">
          <mxGeometry x="640" y="215" width="60" height="30" as="geometry" />
        </mxCell>
        <mxCell id="hAVcg_jXKsXOxKNlVRBH-7" value="" style="html=1;shadow=0;dashed=0;align=center;verticalAlign=middle;shape=mxgraph.arrows2.arrow;dy=0.6;dx=40;direction=south;notch=0;strokeColor=#000000;" vertex="1" parent="1">
          <mxGeometry x="394.5" y="70" width="10" height="20" as="geometry" />
        </mxCell>
        <mxCell id="hAVcg_jXKsXOxKNlVRBH-8" value="" style="shape=flexArrow;endArrow=classic;html=1;rounded=0;edgeStyle=orthogonalEdgeStyle;entryX=0.5;entryY=0;entryDx=0;entryDy=0;" edge="1" parent="1" target="RNcqzkn02mb_PASCYRnu-8">
          <mxGeometry width="50" height="50" relative="1" as="geometry">
            <mxPoint x="460" y="120" as="sourcePoint" />
            <mxPoint x="670" y="200" as="targetPoint" />
          </mxGeometry>
        </mxCell>
        <mxCell id="hAVcg_jXKsXOxKNlVRBH-9" value="" style="shape=flexArrow;endArrow=classic;html=1;rounded=0;edgeStyle=orthogonalEdgeStyle;entryX=0.5;entryY=0;entryDx=0;entryDy=0;" edge="1" parent="1" target="RNcqzkn02mb_PASCYRnu-6">
          <mxGeometry width="50" height="50" relative="1" as="geometry">
            <mxPoint x="340" y="120" as="sourcePoint" />
            <mxPoint x="150" y="190" as="targetPoint" />
          </mxGeometry>
        </mxCell>
        <mxCell id="hAVcg_jXKsXOxKNlVRBH-10" value="" style="html=1;shadow=0;dashed=0;align=center;verticalAlign=middle;shape=mxgraph.arrows2.arrow;dy=0.54;dx=18.86;direction=south;notch=1.48;strokeColor=#000000;" vertex="1" parent="1">
          <mxGeometry x="389" y="160" width="21" height="40" as="geometry" />
        </mxCell>
        <mxCell id="hAVcg_jXKsXOxKNlVRBH-11" value="" style="rounded=0;whiteSpace=wrap;html=1;strokeColor=#000000;" vertex="1" parent="1">
          <mxGeometry x="530" y="290" width="60" height="60" as="geometry" />
        </mxCell>
        <mxCell id="hAVcg_jXKsXOxKNlVRBH-12" value="" style="rounded=0;whiteSpace=wrap;html=1;strokeColor=#000000;" vertex="1" parent="1">
          <mxGeometry x="640" y="290" width="60" height="60" as="geometry" />
        </mxCell>
        <mxCell id="hAVcg_jXKsXOxKNlVRBH-13" value="" style="rounded=0;whiteSpace=wrap;html=1;strokeColor=#000000;" vertex="1" parent="1">
          <mxGeometry x="750" y="290" width="60" height="60" as="geometry" />
        </mxCell>
        <mxCell id="hAVcg_jXKsXOxKNlVRBH-14" value="system apps" style="text;html=1;strokeColor=none;fillColor=none;align=center;verticalAlign=middle;whiteSpace=wrap;rounded=0;" vertex="1" parent="1">
          <mxGeometry x="530" y="305" width="60" height="30" as="geometry" />
        </mxCell>
        <mxCell id="hAVcg_jXKsXOxKNlVRBH-15" value="news" style="text;html=1;strokeColor=none;fillColor=none;align=center;verticalAlign=middle;whiteSpace=wrap;rounded=0;" vertex="1" parent="1">
          <mxGeometry x="640" y="305" width="60" height="30" as="geometry" />
        </mxCell>
        <mxCell id="hAVcg_jXKsXOxKNlVRBH-16" value="explorer" style="text;html=1;strokeColor=none;fillColor=none;align=center;verticalAlign=middle;whiteSpace=wrap;rounded=0;" vertex="1" parent="1">
          <mxGeometry x="750" y="305" width="60" height="30" as="geometry" />
        </mxCell>
        <mxCell id="hAVcg_jXKsXOxKNlVRBH-17" value="" style="shape=flexArrow;endArrow=classic;html=1;rounded=0;edgeStyle=orthogonalEdgeStyle;entryX=0.5;entryY=0;entryDx=0;entryDy=0;" edge="1" parent="1" target="hAVcg_jXKsXOxKNlVRBH-13">
          <mxGeometry width="50" height="50" relative="1" as="geometry">
            <mxPoint x="730" y="215" as="sourcePoint" />
            <mxPoint x="850" y="295" as="targetPoint" />
          </mxGeometry>
        </mxCell>
        <mxCell id="hAVcg_jXKsXOxKNlVRBH-18" value="" style="shape=flexArrow;endArrow=classic;html=1;rounded=0;edgeStyle=orthogonalEdgeStyle;entryX=0.5;entryY=0;entryDx=0;entryDy=0;" edge="1" parent="1" target="hAVcg_jXKsXOxKNlVRBH-11">
          <mxGeometry width="50" height="50" relative="1" as="geometry">
            <mxPoint x="610" y="220" as="sourcePoint" />
            <mxPoint x="550" y="290" as="targetPoint" />
          </mxGeometry>
        </mxCell>
        <mxCell id="hAVcg_jXKsXOxKNlVRBH-19" value="" style="html=1;shadow=0;dashed=0;align=center;verticalAlign=middle;shape=mxgraph.arrows2.arrow;dy=0.68;dx=25.62;direction=south;notch=0;strokeColor=#000000;" vertex="1" parent="1">
          <mxGeometry x="652.5" y="260" width="35" height="30" as="geometry" />
        </mxCell>
        <mxCell id="hAVcg_jXKsXOxKNlVRBH-20" value="" style="rounded=0;whiteSpace=wrap;html=1;strokeColor=#000000;" vertex="1" parent="1">
          <mxGeometry x="610" y="385" width="50" height="60" as="geometry" />
        </mxCell>
        <mxCell id="hAVcg_jXKsXOxKNlVRBH-27" value="" style="html=1;shadow=0;dashed=0;align=center;verticalAlign=middle;shape=mxgraph.arrows2.bendDoubleArrow;dy=4.23;dx=34.12;arrowHead=25.62;rounded=1;strokeColor=#000000;rotation=45;" vertex="1" parent="1">
          <mxGeometry x="632.23" y="340" width="75.55" height="71.61" as="geometry" />
        </mxCell>
        <mxCell id="hAVcg_jXKsXOxKNlVRBH-28" value="" style="html=1;shadow=0;dashed=0;align=center;verticalAlign=middle;shape=mxgraph.arrows2.bendDoubleArrow;dy=4.23;dx=34.12;arrowHead=25.62;rounded=1;strokeColor=#000000;rotation=45;" vertex="1" parent="1">
          <mxGeometry x="770" y="350" width="75.55" height="71.61" as="geometry" />
        </mxCell>
        <mxCell id="hAVcg_jXKsXOxKNlVRBH-30" value="" style="html=1;shadow=0;dashed=0;align=center;verticalAlign=middle;shape=mxgraph.arrows2.bendDoubleArrow;dy=4.23;dx=34.12;arrowHead=25.62;rounded=1;strokeColor=#000000;rotation=45;" vertex="1" parent="1">
          <mxGeometry x="490" y="340" width="75.55" height="71.61" as="geometry" />
        </mxCell>
        <mxCell id="hAVcg_jXKsXOxKNlVRBH-31" value="weather&lt;br&gt;forecast" style="text;html=1;strokeColor=none;fillColor=none;align=center;verticalAlign=middle;whiteSpace=wrap;rounded=0;" vertex="1" parent="1">
          <mxGeometry x="610" y="400" width="50" height="30" as="geometry" />
        </mxCell>
        <mxCell id="hAVcg_jXKsXOxKNlVRBH-32" value="" style="rounded=0;whiteSpace=wrap;html=1;strokeColor=#000000;" vertex="1" parent="1">
          <mxGeometry x="680" y="385" width="50" height="60" as="geometry" />
        </mxCell>
        <mxCell id="hAVcg_jXKsXOxKNlVRBH-33" value="" style="rounded=0;whiteSpace=wrap;html=1;strokeColor=#000000;" vertex="1" parent="1">
          <mxGeometry x="750" y="390" width="50" height="60" as="geometry" />
        </mxCell>
        <mxCell id="hAVcg_jXKsXOxKNlVRBH-34" value="" style="rounded=0;whiteSpace=wrap;html=1;strokeColor=#000000;" vertex="1" parent="1">
          <mxGeometry x="827" y="390" width="50" height="60" as="geometry" />
        </mxCell>
        <mxCell id="hAVcg_jXKsXOxKNlVRBH-35" value="" style="rounded=0;whiteSpace=wrap;html=1;strokeColor=#000000;fontStyle=1" vertex="1" parent="1">
          <mxGeometry x="540" y="390" width="50" height="60" as="geometry" />
        </mxCell>
        <mxCell id="hAVcg_jXKsXOxKNlVRBH-36" value="" style="rounded=0;whiteSpace=wrap;html=1;strokeColor=#000000;" vertex="1" parent="1">
          <mxGeometry x="460" y="390" width="50" height="60" as="geometry" />
        </mxCell>
        <mxCell id="hAVcg_jXKsXOxKNlVRBH-38" value="news" style="text;html=1;strokeColor=none;fillColor=none;align=center;verticalAlign=middle;whiteSpace=wrap;rounded=0;" vertex="1" parent="1">
          <mxGeometry x="680" y="391" width="50" height="30" as="geometry" />
        </mxCell>
        <mxCell id="hAVcg_jXKsXOxKNlVRBH-41" value="mail" style="text;html=1;strokeColor=none;fillColor=none;align=center;verticalAlign=middle;whiteSpace=wrap;rounded=0;" vertex="1" parent="1">
          <mxGeometry x="460" y="405" width="50" height="30" as="geometry" />
        </mxCell>
        <mxCell id="hAVcg_jXKsXOxKNlVRBH-44" value="" style="rounded=0;whiteSpace=wrap;html=1;strokeColor=#000000;" vertex="1" parent="1">
          <mxGeometry x="645" y="460" width="50" height="50" as="geometry" />
        </mxCell>
        <mxCell id="hAVcg_jXKsXOxKNlVRBH-45" value="calendar" style="text;html=1;strokeColor=none;fillColor=none;align=center;verticalAlign=middle;whiteSpace=wrap;rounded=0;" vertex="1" parent="1">
          <mxGeometry x="647.5" y="470" width="45" height="30" as="geometry" />
        </mxCell>
        <mxCell id="hAVcg_jXKsXOxKNlVRBH-46" value="" style="html=1;shadow=0;dashed=0;align=center;verticalAlign=middle;shape=mxgraph.arrows2.arrow;dy=1;dx=41;direction=south;notch=0;strokeColor=#000000;" vertex="1" parent="1">
          <mxGeometry x="665" y="350" width="10" height="106" as="geometry" />
        </mxCell>
        <mxCell id="hAVcg_jXKsXOxKNlVRBH-47" value="" style="endArrow=classic;html=1;rounded=0;edgeStyle=orthogonalEdgeStyle;exitX=0;exitY=0;exitDx=0;exitDy=0;" edge="1" parent="1" source="RNcqzkn02mb_PASCYRnu-8" target="RNcqzkn02mb_PASCYRnu-7">
          <mxGeometry relative="1" as="geometry">
            <mxPoint x="490" y="200" as="sourcePoint" />
            <mxPoint x="590" y="200" as="targetPoint" />
            <Array as="points">
              <mxPoint x="610" y="180" />
              <mxPoint x="535" y="180" />
              <mxPoint x="535" y="230" />
            </Array>
          </mxGeometry>
        </mxCell>
        <mxCell id="hAVcg_jXKsXOxKNlVRBH-48" value="System games" style="edgeLabel;resizable=0;html=1;align=center;verticalAlign=middle;strokeColor=#000000;" connectable="0" vertex="1" parent="hAVcg_jXKsXOxKNlVRBH-47">
          <mxGeometry relative="1" as="geometry" />
        </mxCell>
        <mxCell id="hAVcg_jXKsXOxKNlVRBH-49" value="browser" style="text;html=1;strokeColor=none;fillColor=none;align=center;verticalAlign=middle;whiteSpace=wrap;rounded=0;" vertex="1" parent="1">
          <mxGeometry x="540" y="405" width="50" height="30" as="geometry" />
        </mxCell>
        <mxCell id="hAVcg_jXKsXOxKNlVRBH-52" style="edgeStyle=orthogonalEdgeStyle;rounded=0;orthogonalLoop=1;jettySize=auto;html=1;exitX=0.5;exitY=1;exitDx=0;exitDy=0;" edge="1" parent="1">
          <mxGeometry relative="1" as="geometry">
            <mxPoint x="493.885" y="516" as="sourcePoint" />
            <mxPoint x="493.885" y="516" as="targetPoint" />
          </mxGeometry>
        </mxCell>
        <mxCell id="hAVcg_jXKsXOxKNlVRBH-53" value="" style="rounded=0;whiteSpace=wrap;html=1;strokeColor=#000000;" vertex="1" parent="1">
          <mxGeometry x="502.77" y="456" width="50" height="50" as="geometry" />
        </mxCell>
        <mxCell id="hAVcg_jXKsXOxKNlVRBH-54" value="" style="html=1;shadow=0;dashed=0;align=center;verticalAlign=middle;shape=mxgraph.arrows2.arrow;dy=1;dx=43.57;direction=south;notch=0;strokeColor=#000000;" vertex="1" parent="1">
          <mxGeometry x="519.27" y="340" width="17" height="112.7" as="geometry" />
        </mxCell>
        <mxCell id="hAVcg_jXKsXOxKNlVRBH-55" value="desktop" style="text;html=1;strokeColor=none;fillColor=none;align=center;verticalAlign=middle;whiteSpace=wrap;rounded=0;" vertex="1" parent="1">
          <mxGeometry x="503" y="466" width="47" height="30" as="geometry" />
        </mxCell>
        <mxCell id="hAVcg_jXKsXOxKNlVRBH-56" value="folder" style="text;html=1;strokeColor=none;fillColor=none;align=center;verticalAlign=middle;whiteSpace=wrap;rounded=0;" vertex="1" parent="1">
          <mxGeometry x="750" y="405" width="50" height="30" as="geometry" />
        </mxCell>
        <mxCell id="hAVcg_jXKsXOxKNlVRBH-57" value="images" style="text;html=1;strokeColor=none;fillColor=none;align=center;verticalAlign=middle;whiteSpace=wrap;rounded=0;" vertex="1" parent="1">
          <mxGeometry x="830.5" y="405" width="43" height="30" as="geometry" />
        </mxCell>
        <mxCell id="hAVcg_jXKsXOxKNlVRBH-58" value="" style="endArrow=classic;html=1;rounded=0;edgeStyle=orthogonalEdgeStyle;exitX=0.5;exitY=1;exitDx=0;exitDy=0;" edge="1" parent="1" source="RNcqzkn02mb_PASCYRnu-7">
          <mxGeometry relative="1" as="geometry">
            <mxPoint x="390" y="270" as="sourcePoint" />
            <mxPoint x="260" y="300" as="targetPoint" />
          </mxGeometry>
        </mxCell>
        <mxCell id="hAVcg_jXKsXOxKNlVRBH-59" value="system games" style="edgeLabel;resizable=0;html=1;align=center;verticalAlign=middle;strokeColor=#000000;" connectable="0" vertex="1" parent="hAVcg_jXKsXOxKNlVRBH-58">
          <mxGeometry relative="1" as="geometry" />
        </mxCell>
        <mxCell id="hAVcg_jXKsXOxKNlVRBH-60" value="" style="rounded=0;whiteSpace=wrap;html=1;strokeColor=#000000;" vertex="1" parent="1">
          <mxGeometry x="230" y="305" width="50" height="45" as="geometry" />
        </mxCell>
        <mxCell id="hAVcg_jXKsXOxKNlVRBH-61" value="solitaire" style="text;html=1;strokeColor=none;fillColor=none;align=center;verticalAlign=middle;whiteSpace=wrap;rounded=0;" vertex="1" parent="1">
          <mxGeometry x="230" y="312" width="50" height="30" as="geometry" />
        </mxCell>
        <mxCell id="hAVcg_jXKsXOxKNlVRBH-62" value="" style="curved=1;endArrow=classic;html=1;rounded=0;edgeStyle=orthogonalEdgeStyle;exitX=0.869;exitY=0.994;exitDx=0;exitDy=0;exitPerimeter=0;" edge="1" parent="1" source="hAVcg_jXKsXOxKNlVRBH-53" target="hAVcg_jXKsXOxKNlVRBH-63">
          <mxGeometry width="50" height="50" relative="1" as="geometry">
            <mxPoint x="500" y="560" as="sourcePoint" />
            <mxPoint x="480" y="530" as="targetPoint" />
            <Array as="points">
              <mxPoint x="520" y="506" />
              <mxPoint x="520" y="560" />
              <mxPoint x="546" y="560" />
              <mxPoint x="546" y="530" />
            </Array>
          </mxGeometry>
        </mxCell>
        <mxCell id="hAVcg_jXKsXOxKNlVRBH-63" value="" style="rounded=0;whiteSpace=wrap;html=1;strokeColor=#000000;" vertex="1" parent="1">
          <mxGeometry x="410" y="510" width="60" height="40" as="geometry" />
        </mxCell>
        <mxCell id="hAVcg_jXKsXOxKNlVRBH-64" value="music" style="text;html=1;strokeColor=none;fillColor=none;align=center;verticalAlign=middle;whiteSpace=wrap;rounded=0;" vertex="1" parent="1">
          <mxGeometry x="410" y="515" width="60" height="30" as="geometry" />
        </mxCell>
        <mxCell id="hAVcg_jXKsXOxKNlVRBH-65" value="" style="rounded=0;whiteSpace=wrap;html=1;strokeColor=#000000;" vertex="1" parent="1">
          <mxGeometry y="280" width="60" height="50" as="geometry" />
        </mxCell>
        <mxCell id="hAVcg_jXKsXOxKNlVRBH-66" value="" style="rounded=0;whiteSpace=wrap;html=1;strokeColor=#000000;" vertex="1" parent="1">
          <mxGeometry x="80" y="280" width="60" height="50" as="geometry" />
        </mxCell>
        <mxCell id="hAVcg_jXKsXOxKNlVRBH-67" value="" style="rounded=0;whiteSpace=wrap;html=1;strokeColor=#000000;" vertex="1" parent="1">
          <mxGeometry x="160" y="280" width="60" height="50" as="geometry" />
        </mxCell>
      </root>
    </mxGraphModel>
  </diagram>
</mxfile>
